<svg xmlns="http://www.w3.org/2000/svg" width="561" height="105" viewBox="0 0 561 105" role="img"><title>GapMigrate custom wordmark</title><g transform="translate(5,5)"><g transform="translate(0,0)"><path d="M53 17 C43 4 20 4 11 19 C2 35 6 59 24 65 C38 70 53 62 53 48 V40 H34" fill="none" stroke="#7443A8" stroke-width="6.8" stroke-linecap="round" stroke-linejoin="round"/></g><g transform="translate(67,0)"><path d="M43 33 C33 20 9 24 9 45 C9 68 43 71 43 45 M43 28 V66" fill="none" stroke="#7443A8" stroke-width="6.8" stroke-linecap="round" stroke-linejoin="round"/></g><g transform="translate(124,0)"><path d="M10 29 V87 M10 45 C10 19 45 21 45 45 C45 70 10 69 10 45" fill="none" stroke="#7443A8" stroke-width="6.8" stroke-linecap="round" stroke-linejoin="round"/></g><g transform="translate(182,0)"><path d="M9 66 V9 L35 40 L61 9 V66" fill="none" stroke="#213343" stroke-width="6.8" stroke-linecap="round" stroke-linejoin="round"/></g><g transform="translate(257,0)"><path d="M13 30 V66" fill="none" stroke="#213343" stroke-width="6.8" stroke-linecap="round" stroke-linejoin="round"/><circle cx="13" cy="12" r="4.2" fill="#ED7055"/></g><g transform="translate(286,0)"><path d="M44 32 C29 19 9 27 9 46 C9 67 43 69 43 44 M44 28 V70 C44 91 18 96 10 80" fill="none" stroke="#213343" stroke-width="6.8" stroke-linecap="round" stroke-linejoin="round"/></g><g transform="translate(345,0)"><path d="M10 66 V29 M10 44 C10 30 23 24 35 29" fill="none" stroke="#213343" stroke-width="6.8" stroke-linecap="round" stroke-linejoin="round"/></g><g transform="translate(391,0)"><path d="M43 33 C33 20 9 24 9 45 C9 68 43 71 43 45 M43 28 V66" fill="none" stroke="#213343" stroke-width="6.8" stroke-linecap="round" stroke-linejoin="round"/></g><g transform="translate(448,0)"><path d="M19 12 V52 C19 62 23 66 35 66 M6 30 H35" fill="none" stroke="#213343" stroke-width="6.8" stroke-linecap="round" stroke-linejoin="round"/></g><g transform="translate(494,0)"><path d="M10 44 H44 C44 20 9 21 9 45 C9 67 32 74 44 60" fill="none" stroke="#213343" stroke-width="6.8" stroke-linecap="round" stroke-linejoin="round"/></g></g></svg>